<?xml version="1.0" encoding="UTF-8"?>
<svg xmlns="http://www.w3.org/2000/svg" xmlns:xlink="http://www.w3.org/1999/xlink" width="150pt" height="150pt" viewBox="0 0 150 150" version="1.1">
<g id="surface184570">
<path style=" stroke:none;fill-rule:nonzero;fill:rgb(90.588235%,29.803922%,23.529412%);fill-opacity:1;" d="M 75 6 C 36.929688 6 6 36.929688 6 75 C 6 113.070312 36.929688 144 75 144 C 113.070312 144 144 113.070312 144 75 C 144 36.929688 113.070312 6 75 6 Z M 75 12 C 109.828125 12 138 40.171875 138 75 C 138 109.828125 109.828125 138 75 138 C 40.171875 138 12 109.828125 12 75 C 12 40.171875 40.171875 12 75 12 Z M 104.964844 44.964844 C 103.976562 44.984375 103.058594 45.492188 102.515625 46.320312 L 71.914062 91.429688 L 50.039062 71.132812 C 49.257812 70.378906 48.128906 70.109375 47.089844 70.421875 C 46.050781 70.738281 45.261719 71.585938 45.027344 72.648438 C 44.792969 73.707031 45.152344 74.808594 45.960938 75.53125 L 72.949219 100.574219 L 107.484375 49.679688 C 108.128906 48.757812 108.203125 47.546875 107.671875 46.550781 C 107.136719 45.554688 106.09375 44.941406 104.964844 44.964844 Z M 104.964844 44.964844 "/>
</g>
</svg>
